<svg version="1.1" viewBox="0.0 0.0 248.01574803149606 211.0" fill="none" stroke="none" stroke-linecap="square" stroke-miterlimit="10" xmlns:xlink="http://www.w3.org/1999/xlink" xmlns="http://www.w3.org/2000/svg"><clipPath id="p.0"><path d="m0 0l248.01575 0l0 211.0l-248.01575 0l0 -211.0z" clip-rule="nonzero"/></clipPath><g clip-path="url(#p.0)"><path fill="#000000" fill-opacity="0.0" d="m0 0l248.01575 0l0 211.0l-248.01575 0z" fill-rule="evenodd"/><path fill="#a64d79" d="m124.00787 6.82021l86.28871 39.471916l0 118.41574l-86.28871 39.471924l-86.28871 -39.471924l0 -118.41574z" fill-rule="evenodd"/><path stroke="#4c1130" stroke-width="8.0" stroke-linejoin="round" stroke-linecap="butt" d="m124.00787 6.82021l86.28871 39.471916l0 118.41574l-86.28871 39.471924l-86.28871 -39.471924l0 -118.41574z" fill-rule="evenodd"/><path fill="#ffffff" d="m55.544727 94.402275c1.356617 0 2.2867203 0.06402588 2.7903137 0.19206238c0.78108215 0.20684052 1.4097137 0.6336441 1.8859024 1.2804184c0.47961044 0.64349365 0.7194176 1.4183044 0.7194176 2.3244476c0 1.2508698 -0.40595627 2.2210312 -1.2178726 2.9104843c-0.81191254 0.6894531 -2.1839447 1.0341797 -4.1160965 1.0341797l-5.842705 0l0 -7.7415924zm-8.771763 -2.5559082l0 21.658737l2.9907227 0l0 -8.805328l5.7964554 0c3.1962738 0 5.4059143 -0.63692474 6.6289253 -1.9107742c1.223011 -1.2771301 1.8345146 -2.836609 1.8345146 -4.678444c0 -1.0735779 -0.22953033 -2.0585098 -0.6885872 -2.9548035c-0.45563126 -0.89629364 -1.0585709 -1.5923157 -1.8088226 -2.088066c-0.75024796 -0.49903107 -1.6803551 -0.83719635 -2.7903137 -1.0144806c-0.79135895 -0.13789368 -1.9372902 -0.20684052 -3.43779 -0.20684052z" fill-rule="evenodd"/><path fill="#ffffff" d="m68.340096 91.84637l0 21.658737l2.9907227 0l0 -21.658737z" fill-rule="evenodd"/><path fill="#ffffff" d="m85.374886 94.402275c1.3566208 0 2.2867203 0.06402588 2.7903137 0.19206238c0.78108215 0.20684052 1.4097214 0.6336441 1.8859024 1.2804184c0.47961426 0.64349365 0.7194214 1.4183044 0.7194214 2.3244476c0 1.2508698 -0.40596008 2.2210312 -1.2178726 2.9104843c-0.81191254 0.6894531 -2.1839447 1.0341797 -4.1160965 1.0341797l-5.842705 0l0 -7.7415924zm-8.771759 -2.5559082l0 21.658737l2.9907227 0l0 -8.805328l5.7964554 0c3.1962662 0 5.4059143 -0.63692474 6.6289215 -1.9107742c1.2230148 -1.2771301 1.8345184 -2.836609 1.8345184 -4.678444c0 -1.0735779 -0.22953033 -2.0585098 -0.688591 -2.9548035c-0.45562744 -0.89629364 -1.0585709 -1.5923157 -1.8088226 -2.088066c-0.75024414 -0.49903107 -1.6803513 -0.83719635 -2.7903137 -1.0144806c-0.79135895 -0.13789368 -1.9372864 -0.20684052 -3.43779 -0.20684052z" fill-rule="evenodd"/><path fill="#ffffff" d="m104.32127 99.54364c1.1921844 0 2.2164993 0.49739075 3.0729446 1.4921799c0.85987854 0.9947815 1.2898178 2.4918823 1.2898178 4.4913025c0 2.0979156 -0.44021606 3.6475449 -1.3206482 4.6488953c-0.87700653 0.99806976 -1.9321518 1.4971008 -3.1654434 1.4971008c-1.2127304 0 -2.2456055 -0.4826126 -3.0986328 -1.4478531c-0.85302734 -0.96523285 -1.2795334 -2.4574127 -1.2795334 -4.476532c0 -2.0191193 0.45391846 -3.5572586 1.3617554 -4.614418c0.9112625 -1.0604477 1.95784 -1.5906754 3.13974 -1.5906754zm0.26207733 -2.0831375c-1.0688477 0 -1.9784012 0.2002716 -2.728653 0.6008072c-0.75025177 0.39726257 -1.4234161 0.9947891 -2.0195084 1.7925873l0 -2.0388184l-2.5282364 0l0 21.703056l2.7748947 0l0 -7.638176c0.47276306 0.57125854 1.0756989 1.0440292 1.8088226 1.4183044c0.7365494 0.3742752 1.5673065 0.5614166 2.4922714 0.5614166c1.264122 0 2.4682846 -0.34144592 3.612503 -1.0243378c1.147644 -0.6861725 2.021225 -1.6711044 2.6207428 -2.9548035c0.6029358 -1.2869797 0.9044113 -2.7331924 0.9044113 -4.3386383c0 -1.4971008 -0.27235413 -2.872734 -0.81705475 -4.1268845c-0.5447006 -1.257431 -1.3514786 -2.230873 -2.4203262 -2.9203339c-1.0688553 -0.6894531 -2.3021393 -1.0341797 -3.6998672 -1.0341797z" fill-rule="evenodd"/><path fill="#ffffff" d="m120.878174 97.4605c-0.6474762 0 -1.2418518 0.17728424 -1.7831345 0.531868c-0.5378494 0.3545761 -1.1253738 1.0883484 -1.7625732 2.2013245l0 -2.3786163l-2.497406 0l0 15.690025l2.7748947 0l0 -8.214363c0 -1.1228256 0.15416718 -2.157013 0.46248627 -3.1025467c0.20555115 -0.6205139 0.54984283 -1.1047668 1.0328751 -1.4527817c0.48303986 -0.35129547 1.0277405 -0.5269394 1.6341095 -0.5269394c0.6783066 0 1.3566208 0.19206238 2.0349274 0.57618713l0.9557953 -2.4672623c-0.9660721 -0.5712662 -1.9167328 -0.85689545 -2.8519745 -0.85689545z" fill-rule="evenodd"/><path fill="#ffffff" d="m132.02402 99.661835c1.3668976 0 2.5093994 0.5006714 3.4275055 1.5020218c0.9215393 0.99806976 1.382309 2.46727 1.382309 4.407593c0 2.0585098 -0.45733643 3.590088 -1.3720245 4.594719c-0.9146881 1.0046387 -2.0606232 1.5069504 -3.43779 1.5069504c-1.3874512 0 -2.5385284 -0.49903107 -3.4532166 -1.4971008c-0.9146805 -1.0013504 -1.3720245 -2.5066605 -1.3720245 -4.51593c0 -2.009262 0.45734406 -3.5112915 1.3720245 -4.5060806c0.9146881 -0.9947815 2.0657654 -1.4921722 3.4532166 -1.4921722zm0 -2.201332c-2.0246582 0 -3.740982 0.5811081 -5.148979 1.7433319c-1.6854935 1.398613 -2.528244 3.5506973 -2.528244 6.456253c0 2.6494827 0.705719 4.678444 2.1171494 6.0869064c1.414856 1.4084549 3.2682037 2.1126862 5.560074 2.1126862c1.4285583 0 2.7457733 -0.3201065 3.9516602 -0.9603119c1.2093048 -0.640213 2.1291351 -1.538147 2.7594757 -2.6938019c0.6337738 -1.1589432 0.95066833 -2.7479706 0.95066833 -4.76709c0 -2.4918823 -0.7142792 -4.443695 -2.1428375 -5.855438c-1.4285583 -1.4150238 -3.268219 -2.1225357 -5.5189667 -2.1225357z" fill-rule="evenodd"/><path fill="#ffffff" d="m148.13383 91.47702c-1.2127228 0 -2.15654 0.21504211 -2.831421 0.645134c-0.67144775 0.4268036 -1.1407928 0.98493195 -1.4080048 1.6743851c-0.19526672 0.5121689 -0.2929077 1.2951965 -0.2929077 2.3490753l0 1.6694641l-2.4511566 0l0 2.068367l2.4511566 0l0 13.621658l2.759491 0l0 -13.621658l3.1911316 0l0 -2.068367l-3.1911316 0l0 -1.4478531c0 -0.9455414 0.17471313 -1.5906754 0.5241394 -1.9354019c0.34944153 -0.34472656 0.9455261 -0.51708984 1.788269 -0.51708984c0.51387024 0 1.0585785 0.04924774 1.6341095 0.14774323l0.4162445 -2.3195267c-0.9455261 -0.17728424 -1.8088226 -0.26593018 -2.58992 -0.26593018z" fill-rule="evenodd"/><path fill="#ffffff" d="m151.7258 91.84637l0 3.0582275l2.774887 0l0 -3.0582275zm0 5.968712l0 15.690025l2.774887 0l0 -15.690025z" fill-rule="evenodd"/><path fill="#ffffff" d="m158.66304 91.84637l0 21.658737l2.7749023 0l0 -21.658737z" fill-rule="evenodd"/><path fill="#ffffff" d="m172.49129 99.64706c1.4080048 0 2.5539398 0.5121689 3.43779 1.536499c0.575531 0.6599121 0.92497253 1.6497726 1.0482941 2.9695816l-9.141754 0c0.09249878 -1.3690567 0.57211304 -2.4623337 1.4388428 -3.279831c0.8701477 -0.81749725 1.9424286 -1.2262497 3.2168274 -1.2262497zm-0.030838013 -2.186554c-2.2610168 0 -4.1006775 0.7288513 -5.5189667 2.186554c-1.4182739 1.4577103 -2.127411 3.5063705 -2.127411 6.1460037c0 2.5509796 0.7005768 4.5339813 2.1017303 5.949005c1.4045715 1.4117432 3.304184 2.1176147 5.698807 2.1176147c1.9013214 0 3.4634857 -0.44322205 4.686508 -1.3296661c1.2230072 -0.8864441 2.060608 -2.1323853 2.5128174 -3.737831l-2.8674011 -0.33979797c-0.42137146 1.1228256 -0.99176025 1.9403229 -1.7111816 2.4524841c-0.7194214 0.5121689 -1.5878601 0.7682495 -2.6053162 0.7682495c-1.3668976 0 -2.5076904 -0.45799255 -3.4223785 -1.3739853c-0.9146881 -0.9159851 -1.4234161 -2.2358017 -1.5261993 -3.9594345l12.209564 0c0.010269165 -0.31518555 0.015411377 -0.5515671 0.015411377 -0.70915985c0 -2.5903778 -0.6937256 -4.5996475 -2.0811768 -6.0278015c-1.3874512 -1.428154 -3.1757202 -2.1422348 -5.364807 -2.1422348z" fill-rule="evenodd"/><path fill="#ffffff" d="m193.84259 94.23976c1.6752167 0 2.8999329 0.32995605 3.6741638 0.98986053c0.7776642 0.6599045 1.1664886 1.5020294 1.1664886 2.5263596c0 0.6993027 -0.20040894 1.3477249 -0.6012268 1.9452515c-0.40081787 0.5942459 -0.9866333 1.0276108 -1.757431 1.3001099c-0.770813 0.26921844 -1.8396606 0.40382385 -3.2065582 0.40382385l-6.4285126 0l0 -7.1654053zm-10.143799 -2.3933945l0 21.658737l2.9907227 0l0 -9.617897l3.468628 0c0.7707977 0 1.3257751 0.034469604 1.6649323 0.10341644c0.4624939 0.10834503 0.9163971 0.3004074 1.3617554 0.57618713c0.44877625 0.27577972 0.95581055 0.75839996 1.5210571 1.4478531c0.56526184 0.68946075 1.2846832 1.6842422 2.1582642 2.9843597l2.9907227 4.5060806l3.7615204 0l-3.9311066 -5.894844c-0.78108215 -1.1523743 -1.6084137 -2.1126862 -2.4819946 -2.8809357c-0.41108704 -0.3545761 -1.0123138 -0.7140732 -1.8036804 -1.0784988c2.1685333 -0.2856369 3.7718048 -0.95539093 4.8098297 -2.0092697c1.0380096 -1.0538864 1.5570221 -2.3490753 1.5570221 -3.8855743c0 -1.1917725 -0.3134613 -2.2801208 -0.9403839 -3.2650604c-0.6269226 -0.98493195 -1.4645233 -1.6711044 -2.5128174 -2.0585175c-1.0482941 -0.39068604 -2.5796356 -0.5860367 -4.5940094 -0.5860367z" fill-rule="evenodd"/><path stroke="#4c1130" stroke-width="1.0" stroke-linejoin="round" stroke-linecap="butt" d="m55.544727 94.402275c1.356617 0 2.2867203 0.06402588 2.7903137 0.19206238c0.78108215 0.20684052 1.4097137 0.6336441 1.8859024 1.2804184c0.47961044 0.64349365 0.7194176 1.4183044 0.7194176 2.3244476c0 1.2508698 -0.40595627 2.2210312 -1.2178726 2.9104843c-0.81191254 0.6894531 -2.1839447 1.0341797 -4.1160965 1.0341797l-5.842705 0l0 -7.7415924zm-8.771763 -2.5559082l0 21.658737l2.9907227 0l0 -8.805328l5.7964554 0c3.1962738 0 5.4059143 -0.63692474 6.6289253 -1.9107742c1.223011 -1.2771301 1.8345146 -2.836609 1.8345146 -4.678444c0 -1.0735779 -0.22953033 -2.0585098 -0.6885872 -2.9548035c-0.45563126 -0.89629364 -1.0585709 -1.5923157 -1.8088226 -2.088066c-0.75024796 -0.49903107 -1.6803551 -0.83719635 -2.7903137 -1.0144806c-0.79135895 -0.13789368 -1.9372902 -0.20684052 -3.43779 -0.20684052z" fill-rule="evenodd"/><path stroke="#4c1130" stroke-width="1.0" stroke-linejoin="round" stroke-linecap="butt" d="m68.340096 91.84637l0 21.658737l2.9907227 0l0 -21.658737z" fill-rule="evenodd"/><path stroke="#4c1130" stroke-width="1.0" stroke-linejoin="round" stroke-linecap="butt" d="m85.374886 94.402275c1.3566208 0 2.2867203 0.06402588 2.7903137 0.19206238c0.78108215 0.20684052 1.4097214 0.6336441 1.8859024 1.2804184c0.47961426 0.64349365 0.7194214 1.4183044 0.7194214 2.3244476c0 1.2508698 -0.40596008 2.2210312 -1.2178726 2.9104843c-0.81191254 0.6894531 -2.1839447 1.0341797 -4.1160965 1.0341797l-5.842705 0l0 -7.7415924zm-8.771759 -2.5559082l0 21.658737l2.9907227 0l0 -8.805328l5.7964554 0c3.1962662 0 5.4059143 -0.63692474 6.6289215 -1.9107742c1.2230148 -1.2771301 1.8345184 -2.836609 1.8345184 -4.678444c0 -1.0735779 -0.22953033 -2.0585098 -0.688591 -2.9548035c-0.45562744 -0.89629364 -1.0585709 -1.5923157 -1.8088226 -2.088066c-0.75024414 -0.49903107 -1.6803513 -0.83719635 -2.7903137 -1.0144806c-0.79135895 -0.13789368 -1.9372864 -0.20684052 -3.43779 -0.20684052z" fill-rule="evenodd"/><path stroke="#4c1130" stroke-width="1.0" stroke-linejoin="round" stroke-linecap="butt" d="m104.32127 99.54364c1.1921844 0 2.2164993 0.49739075 3.0729446 1.4921799c0.85987854 0.9947815 1.2898178 2.4918823 1.2898178 4.4913025c0 2.0979156 -0.44021606 3.6475449 -1.3206482 4.6488953c-0.87700653 0.99806976 -1.9321518 1.4971008 -3.1654434 1.4971008c-1.2127304 0 -2.2456055 -0.4826126 -3.0986328 -1.4478531c-0.85302734 -0.96523285 -1.2795334 -2.4574127 -1.2795334 -4.476532c0 -2.0191193 0.45391846 -3.5572586 1.3617554 -4.614418c0.9112625 -1.0604477 1.95784 -1.5906754 3.13974 -1.5906754zm0.26207733 -2.0831375c-1.0688477 0 -1.9784012 0.2002716 -2.728653 0.6008072c-0.75025177 0.39726257 -1.4234161 0.9947891 -2.0195084 1.7925873l0 -2.0388184l-2.5282364 0l0 21.703056l2.7748947 0l0 -7.638176c0.47276306 0.57125854 1.0756989 1.0440292 1.8088226 1.4183044c0.7365494 0.3742752 1.5673065 0.5614166 2.4922714 0.5614166c1.264122 0 2.4682846 -0.34144592 3.612503 -1.0243378c1.147644 -0.6861725 2.021225 -1.6711044 2.6207428 -2.9548035c0.6029358 -1.2869797 0.9044113 -2.7331924 0.9044113 -4.3386383c0 -1.4971008 -0.27235413 -2.872734 -0.81705475 -4.1268845c-0.5447006 -1.257431 -1.3514786 -2.230873 -2.4203262 -2.9203339c-1.0688553 -0.6894531 -2.3021393 -1.0341797 -3.6998672 -1.0341797z" fill-rule="evenodd"/><path stroke="#4c1130" stroke-width="1.0" stroke-linejoin="round" stroke-linecap="butt" d="m120.878174 97.4605c-0.6474762 0 -1.2418518 0.17728424 -1.7831345 0.531868c-0.5378494 0.3545761 -1.1253738 1.0883484 -1.7625732 2.2013245l0 -2.3786163l-2.497406 0l0 15.690025l2.7748947 0l0 -8.214363c0 -1.1228256 0.15416718 -2.157013 0.46248627 -3.1025467c0.20555115 -0.6205139 0.54984283 -1.1047668 1.0328751 -1.4527817c0.48303986 -0.35129547 1.0277405 -0.5269394 1.6341095 -0.5269394c0.6783066 0 1.3566208 0.19206238 2.0349274 0.57618713l0.9557953 -2.4672623c-0.9660721 -0.5712662 -1.9167328 -0.85689545 -2.8519745 -0.85689545z" fill-rule="evenodd"/><path stroke="#4c1130" stroke-width="1.0" stroke-linejoin="round" stroke-linecap="butt" d="m132.02402 99.661835c1.3668976 0 2.5093994 0.5006714 3.4275055 1.5020218c0.9215393 0.99806976 1.382309 2.46727 1.382309 4.407593c0 2.0585098 -0.45733643 3.590088 -1.3720245 4.594719c-0.9146881 1.0046387 -2.0606232 1.5069504 -3.43779 1.5069504c-1.3874512 0 -2.5385284 -0.49903107 -3.4532166 -1.4971008c-0.9146805 -1.0013504 -1.3720245 -2.5066605 -1.3720245 -4.51593c0 -2.009262 0.45734406 -3.5112915 1.3720245 -4.5060806c0.9146881 -0.9947815 2.0657654 -1.4921722 3.4532166 -1.4921722zm0 -2.201332c-2.0246582 0 -3.740982 0.5811081 -5.148979 1.7433319c-1.6854935 1.398613 -2.528244 3.5506973 -2.528244 6.456253c0 2.6494827 0.705719 4.678444 2.1171494 6.0869064c1.414856 1.4084549 3.2682037 2.1126862 5.560074 2.1126862c1.4285583 0 2.7457733 -0.3201065 3.9516602 -0.9603119c1.2093048 -0.640213 2.1291351 -1.538147 2.7594757 -2.6938019c0.6337738 -1.1589432 0.95066833 -2.7479706 0.95066833 -4.76709c0 -2.4918823 -0.7142792 -4.443695 -2.1428375 -5.855438c-1.4285583 -1.4150238 -3.268219 -2.1225357 -5.5189667 -2.1225357z" fill-rule="evenodd"/><path stroke="#4c1130" stroke-width="1.0" stroke-linejoin="round" stroke-linecap="butt" d="m148.13383 91.47702c-1.2127228 0 -2.15654 0.21504211 -2.831421 0.645134c-0.67144775 0.4268036 -1.1407928 0.98493195 -1.4080048 1.6743851c-0.19526672 0.5121689 -0.2929077 1.2951965 -0.2929077 2.3490753l0 1.6694641l-2.4511566 0l0 2.068367l2.4511566 0l0 13.621658l2.759491 0l0 -13.621658l3.1911316 0l0 -2.068367l-3.1911316 0l0 -1.4478531c0 -0.9455414 0.17471313 -1.5906754 0.5241394 -1.9354019c0.34944153 -0.34472656 0.9455261 -0.51708984 1.788269 -0.51708984c0.51387024 0 1.0585785 0.04924774 1.6341095 0.14774323l0.4162445 -2.3195267c-0.9455261 -0.17728424 -1.8088226 -0.26593018 -2.58992 -0.26593018z" fill-rule="evenodd"/><path stroke="#4c1130" stroke-width="1.0" stroke-linejoin="round" stroke-linecap="butt" d="m151.7258 91.84637l0 3.0582275l2.774887 0l0 -3.0582275zm0 5.968712l0 15.690025l2.774887 0l0 -15.690025z" fill-rule="evenodd"/><path stroke="#4c1130" stroke-width="1.0" stroke-linejoin="round" stroke-linecap="butt" d="m158.66304 91.84637l0 21.658737l2.7749023 0l0 -21.658737z" fill-rule="evenodd"/><path stroke="#4c1130" stroke-width="1.0" stroke-linejoin="round" stroke-linecap="butt" d="m172.49129 99.64706c1.4080048 0 2.5539398 0.5121689 3.43779 1.536499c0.575531 0.6599121 0.92497253 1.6497726 1.0482941 2.9695816l-9.141754 0c0.09249878 -1.3690567 0.57211304 -2.4623337 1.4388428 -3.279831c0.8701477 -0.81749725 1.9424286 -1.2262497 3.2168274 -1.2262497zm-0.030838013 -2.186554c-2.2610168 0 -4.1006775 0.7288513 -5.5189667 2.186554c-1.4182739 1.4577103 -2.127411 3.5063705 -2.127411 6.1460037c0 2.5509796 0.7005768 4.5339813 2.1017303 5.949005c1.4045715 1.4117432 3.304184 2.1176147 5.698807 2.1176147c1.9013214 0 3.4634857 -0.44322205 4.686508 -1.3296661c1.2230072 -0.8864441 2.060608 -2.1323853 2.5128174 -3.737831l-2.8674011 -0.33979797c-0.42137146 1.1228256 -0.99176025 1.9403229 -1.7111816 2.4524841c-0.7194214 0.5121689 -1.5878601 0.7682495 -2.6053162 0.7682495c-1.3668976 0 -2.5076904 -0.45799255 -3.4223785 -1.3739853c-0.9146881 -0.9159851 -1.4234161 -2.2358017 -1.5261993 -3.9594345l12.209564 0c0.010269165 -0.31518555 0.015411377 -0.5515671 0.015411377 -0.70915985c0 -2.5903778 -0.6937256 -4.5996475 -2.0811768 -6.0278015c-1.3874512 -1.428154 -3.1757202 -2.1422348 -5.364807 -2.1422348z" fill-rule="evenodd"/><path stroke="#4c1130" stroke-width="1.0" stroke-linejoin="round" stroke-linecap="butt" d="m193.84259 94.23976c1.6752167 0 2.8999329 0.32995605 3.6741638 0.98986053c0.7776642 0.6599045 1.1664886 1.5020294 1.1664886 2.5263596c0 0.6993027 -0.20040894 1.3477249 -0.6012268 1.9452515c-0.40081787 0.5942459 -0.9866333 1.0276108 -1.757431 1.3001099c-0.770813 0.26921844 -1.8396606 0.40382385 -3.2065582 0.40382385l-6.4285126 0l0 -7.1654053zm-10.143799 -2.3933945l0 21.658737l2.9907227 0l0 -9.617897l3.468628 0c0.7707977 0 1.3257751 0.034469604 1.6649323 0.10341644c0.4624939 0.10834503 0.9163971 0.3004074 1.3617554 0.57618713c0.44877625 0.27577972 0.95581055 0.75839996 1.5210571 1.4478531c0.56526184 0.68946075 1.2846832 1.6842422 2.1582642 2.9843597l2.9907227 4.5060806l3.7615204 0l-3.9311066 -5.894844c-0.78108215 -1.1523743 -1.6084137 -2.1126862 -2.4819946 -2.8809357c-0.41108704 -0.3545761 -1.0123138 -0.7140732 -1.8036804 -1.0784988c2.1685333 -0.2856369 3.7718048 -0.95539093 4.8098297 -2.0092697c1.0380096 -1.0538864 1.5570221 -2.3490753 1.5570221 -3.8855743c0 -1.1917725 -0.3134613 -2.2801208 -0.9403839 -3.2650604c-0.6269226 -0.98493195 -1.4645233 -1.6711044 -2.5128174 -2.0585175c-1.0482941 -0.39068604 -2.5796356 -0.5860367 -4.5940094 -0.5860367z" fill-rule="evenodd"/></g></svg>